<svg width="251" height="250" viewBox="0 0 251 250" fill="none" xmlns="http://www.w3.org/2000/svg">
<g clip-path="url(#clip0_3520_10331)">
<path d="M160.323 158.25C157.941 164.993 147.783 190.032 145.582 196.416C143.223 203.262 147.017 209.431 157.469 211.593C162.753 212.686 164.119 208.654 166.479 203.384C170.34 194.761 182.982 166.841 182.982 166.841L160.323 158.25L160.323 158.25Z" fill="#242424"/>
<path d="M159.132 214.291C158.461 214.291 157.739 214.216 156.959 214.055C150.669 212.753 146.161 209.991 143.924 206.065C142.16 202.969 141.91 199.35 143.203 195.598C144.359 192.244 147.667 183.847 150.866 175.728C153.791 168.303 156.815 160.626 157.951 157.414C158.062 157.098 158.236 156.807 158.462 156.559C158.687 156.311 158.96 156.111 159.265 155.97C159.569 155.829 159.898 155.75 160.234 155.738C160.569 155.726 160.903 155.781 161.217 155.9L183.876 164.491C184.197 164.613 184.49 164.799 184.736 165.038C184.983 165.277 185.177 165.565 185.308 165.882C185.44 166.199 185.504 166.54 185.499 166.883C185.493 167.226 185.417 167.564 185.276 167.877C185.149 168.156 172.592 195.891 168.777 204.411C168.62 204.762 168.467 205.106 168.318 205.445C166.472 209.621 164.407 214.291 159.132 214.291ZM161.81 161.503C160.372 165.328 158.015 171.31 155.549 177.569C152.37 185.639 149.083 193.984 147.962 197.235C147.142 199.614 147.255 201.748 148.298 203.578C149.799 206.211 153.147 208.132 157.98 209.132C160.665 209.685 161.412 208.622 163.714 203.414C163.869 203.062 164.025 202.71 164.182 202.358C167.331 195.327 176.42 175.239 179.587 168.242L161.81 161.503Z" fill="#242424"/>
<path d="M164.348 160.592C161.965 167.335 151.807 192.373 149.607 198.758C144.888 212.45 165.785 216.265 170.504 205.726C174.364 197.103 187.007 169.183 187.007 169.183L164.347 160.592L164.348 160.592Z" fill="white"/>
<path d="M160.066 214.287C157.99 214.287 155.925 213.906 154.069 213.174C147.603 210.623 144.917 204.644 147.228 197.941C148.384 194.586 151.692 186.19 154.891 178.069C157.815 170.645 160.84 162.968 161.975 159.755C162.086 159.439 162.26 159.149 162.486 158.901C162.711 158.653 162.984 158.453 163.289 158.312C163.593 158.171 163.923 158.092 164.258 158.08C164.593 158.068 164.927 158.123 165.241 158.242L187.9 166.833C188.222 166.955 188.514 167.141 188.761 167.38C189.007 167.62 189.202 167.907 189.333 168.224C189.464 168.541 189.529 168.882 189.523 169.225C189.518 169.568 189.442 169.907 189.3 170.219C189.174 170.498 176.616 198.233 172.801 206.752C170.486 211.925 165.238 214.287 160.066 214.287V214.287ZM165.834 163.845C164.396 167.67 162.04 173.651 159.574 179.91C156.395 187.981 153.107 196.326 151.987 199.577C150.041 205.223 153.614 207.59 155.917 208.498C160.263 210.212 166.239 209.095 168.207 204.701C171.354 197.669 180.444 177.581 183.611 170.585L165.834 163.845Z" fill="#242424"/>
<path d="M134.275 57.2734C140.956 88.3042 154.412 101.745 169.403 109.093C179.645 122.85 172.228 145.427 153.865 151.776C153.865 151.776 118.791 144.225 91.7609 154.063C67.117 163.032 134.275 57.2734 134.275 57.2734Z" fill="white"/>
<path d="M89.1761 157.114C87.1308 157.114 85.8797 156.215 85.133 155.288C83.329 153.049 82.358 148.713 88.8345 133.54C92.4566 125.055 98.0764 113.976 105.538 100.609C118.204 77.9193 132.011 56.1447 132.149 55.9274C132.416 55.5059 132.803 55.1734 133.261 54.9724C133.718 54.7715 134.225 54.7111 134.717 54.7991C135.208 54.8867 135.663 55.1186 136.022 55.4651C136.382 55.8117 136.63 56.2573 136.735 56.7451C142.317 82.6754 152.734 98.1245 170.511 106.836C170.871 107.012 171.183 107.272 171.422 107.593C176.59 114.535 177.943 123.735 175.135 132.834C172.052 142.821 164.408 150.791 154.687 154.152C154.252 154.302 153.785 154.331 153.335 154.234C152.991 154.16 118.636 146.957 92.6216 156.425C91.2774 156.914 90.1385 157.114 89.1761 157.114V157.114ZM89.0208 152.078C89.1948 152.102 89.7459 152.122 90.8988 151.702C116.479 142.392 148.37 148.116 153.678 149.173C161.585 146.211 167.781 139.595 170.325 131.353C172.591 124.013 171.641 116.657 167.727 111.069C159.144 106.764 152.262 101.033 146.703 93.5655C140.822 85.6657 136.386 75.8562 133.216 63.7069C128.42 71.4319 118.952 86.9147 110.036 102.875C102.68 116.043 97.1388 126.943 93.566 135.275C87.8549 148.592 88.7979 151.631 89.0208 152.078Z" fill="#242424"/>
<path d="M120.316 39.5998C97.4194 32.8297 68.6192 59.2071 58.4527 89.5077C49.0188 117.624 56.5322 149.378 77.2211 154.695C119.504 165.563 156.941 50.4285 120.316 39.5998Z" fill="#D1F2EB"/>
<path d="M82.9475 157.941C80.8041 157.94 78.6695 157.667 76.5946 157.13C67.5023 154.793 61.2091 147.967 58.3949 137.391C55.1924 125.354 56.6423 108.501 62.3728 91.1505C68.0455 73.9762 77.186 58.4079 87.4507 48.4378C98.3855 37.8166 109.997 33.927 121.031 37.1896C129.736 39.7637 135.285 47.587 137.075 59.8138C138.591 70.1632 137.309 83.5093 133.465 97.3937C128.762 114.383 120.74 130.468 111.457 141.524C102.358 152.361 92.6143 157.941 82.9475 157.941ZM113.404 41.1068C104.344 41.1068 96.4085 46.7492 90.9591 52.0422C70.5096 71.9059 57.0478 112.756 63.2587 136.099C65.6109 144.939 70.5197 150.377 77.8482 152.261C90.101 155.41 100.791 146.404 107.6 138.293C116.436 127.769 124.096 112.373 128.614 96.0535C135.159 72.4148 134.91 46.5363 119.602 42.01C117.59 41.4116 115.503 41.1072 113.404 41.1065V41.1068Z" fill="#242424"/>
<path d="M169.403 109.093C170.26 121.161 163.858 144.861 153.865 151.776C147.817 155.962 190.448 172.174 197.172 171.043C211.727 168.595 221.991 135.199 210.628 125.641C203.995 120.062 169.014 103.599 169.403 109.093Z" fill="white"/>
<path d="M196.427 173.608C190.068 173.608 174.779 167.72 172.948 167.005C167.586 164.913 162.817 162.767 159.155 160.8C153.005 157.495 151.601 155.559 151.064 154.241C150.372 152.543 150.909 150.765 152.431 149.712C161.55 143.401 167.705 120.727 166.892 109.272C166.791 107.848 167.488 106.613 168.757 105.968C169.866 105.405 172.81 103.907 190.595 111.886C198.423 115.398 208.538 120.599 212.249 123.72C219.115 129.496 218.885 141.348 216.379 150.514C213.756 160.112 207.261 171.897 197.589 173.524C197.248 173.581 196.857 173.608 196.427 173.608ZM156.355 153.05C158.257 154.754 164.122 158.188 175.1 162.447C185.942 166.652 194.782 168.899 196.754 168.566C202.601 167.582 208.675 159.614 211.524 149.189C214.158 139.555 213.169 131.067 209.007 127.566C206.311 125.298 198.026 120.779 189.307 116.821C180.071 112.628 174.411 110.894 171.988 110.554C172.268 123.284 166.232 145.035 156.355 153.05Z" fill="#242424"/>
<path d="M102.01 86.0898L130.969 96.9743C127.595 108.606 123.262 120.019 115.81 131.346L88.333 117.401L102.01 86.0898Z" fill="white"/>
<path d="M115.808 133.86C115.413 133.86 115.023 133.767 114.67 133.587L87.193 119.642C86.6208 119.352 86.1812 118.854 85.9644 118.25C85.7475 117.647 85.7697 116.984 86.0264 116.396L99.7039 85.0843C99.962 84.494 100.437 84.0251 101.031 83.7744C101.625 83.5237 102.293 83.5103 102.897 83.7369L131.855 94.6213C132.448 94.8442 132.935 95.2823 133.219 95.8482C133.503 96.414 133.562 97.066 133.386 97.6738C130.6 107.279 126.323 119.944 117.913 132.727C117.683 133.075 117.371 133.362 117.004 133.559C116.636 133.757 116.225 133.861 115.808 133.86H115.808ZM91.5887 116.234L114.92 128.075C121.57 117.449 125.346 106.951 127.893 98.5037L103.361 89.2831L91.5887 116.234Z" fill="#242424"/>
<path d="M102.011 86.0893C113.795 91.6811 98.8761 120.729 88.3332 117.401C77.7902 114.073 91.4479 81.0772 102.011 86.0893Z" fill="white"/>
<path d="M90.1021 120.187C89.2573 120.187 88.4135 120.062 87.5751 119.797C84.7433 118.903 82.8501 116.488 82.244 112.997C80.8009 104.684 86.5337 90.7495 93.6037 85.3861C96.7778 82.9779 100.147 82.422 103.091 83.8175C109.129 86.6829 110.55 94.3802 106.799 103.906C103.488 112.314 96.803 120.186 90.1021 120.187ZM99.7574 88.0813C99.0381 88.0813 98.0135 88.3539 96.6477 89.3903C91.1174 93.5858 86.0861 105.704 87.2031 112.139C87.6197 114.539 88.7277 114.888 89.0916 115.003C89.4009 115.1 89.7232 115.147 90.0471 115.145C93.7795 115.146 99.2459 109.352 102.115 102.066C104.127 96.9568 105.024 90.3013 100.931 88.3596C100.731 88.2644 100.346 88.082 99.7574 88.082V88.0813Z" fill="#242424"/>
</g>
<g clip-path="url(#clip1_3520_10331)">
<path d="M40.9849 55.7878L48.7086 46.0801L57.0358 64.0043C57.0358 64.0043 66.5629 52.5457 68.4228 53.0583C70.2827 53.5712 78.3521 87.7991 78.3521 87.7991L63.7306 69.4881C63.7306 69.4881 54.9221 80.1658 52.6245 79.2334C50.327 78.301 40.9849 55.7874 40.9849 55.7874V55.7878Z" fill="white"/>
<path d="M78.3528 90.3058C77.9767 90.3061 77.6053 90.2215 77.2664 90.0584C76.9274 89.8953 76.6295 89.6579 76.3948 89.3638L63.6579 73.4133C62.7393 74.451 61.797 75.4673 60.8317 76.4616C56.346 81.062 53.8666 82.4429 51.6829 81.557C50.577 81.1082 49.3237 80.5992 43.6642 68.2028C41.0535 62.4841 38.6947 56.8058 38.6711 56.7488C38.4993 56.3349 38.4416 55.8825 38.5038 55.4387C38.5661 54.9949 38.746 54.5759 39.025 54.2253L46.7488 44.5176C47.0151 44.1838 47.3619 43.9234 47.7567 43.761C48.1514 43.5986 48.581 43.5396 49.0048 43.5895C49.4287 43.6401 49.8327 43.7983 50.1784 44.0491C50.524 44.2999 50.8 44.6348 50.98 45.0223L57.6698 59.4221C58.5006 58.4785 59.3445 57.5465 60.2011 56.6263C65.5271 50.9209 67.3111 50.1514 69.088 50.64C70.682 51.0799 71.4414 52.4475 73.1513 57.9585C74.0632 60.8976 75.193 64.9446 76.5086 69.9867C78.74 78.5374 80.7699 87.1364 80.7903 87.2224C80.8771 87.5905 80.8796 87.9734 80.7976 88.3426C80.7155 88.7118 80.5511 89.0576 80.3167 89.3541C80.0822 89.6507 79.7837 89.8903 79.4436 90.0551C79.1035 90.2198 78.7306 90.3058 78.3528 90.3058ZM63.7302 66.9803H63.7502C64.1228 66.9832 64.49 67.0693 64.8251 67.2323C65.1602 67.3953 65.4548 67.631 65.6874 67.9223L73.2333 77.3721C70.9568 68.3217 68.71 60.1239 67.4102 56.5103C65.3327 58.3536 61.8008 62.1936 58.9614 65.6076C58.6913 65.9325 58.3435 66.1838 57.9503 66.3381C57.5571 66.4924 57.1313 66.5448 56.7125 66.4902C56.2937 66.4357 55.8955 66.276 55.5549 66.0262C55.2143 65.7763 54.9423 65.4443 54.7642 65.061L48.1449 50.8134L43.8678 56.189C47.3479 64.4707 51.5458 73.549 53.4225 76.4082C55.1783 75.1942 58.7295 71.6122 61.7987 67.8915C62.0338 67.6067 62.3289 67.3773 62.6628 67.2198C62.9968 67.0624 63.3614 66.9807 63.7305 66.9806L63.7302 66.9803Z" fill="#242424"/>
<path d="M26.6641 120.794L22.2908 110.242L40.426 111.511C40.426 111.511 35.0263 99.1061 36.6872 97.4541C38.3481 95.802 69.071 104.92 69.071 104.92L47.8212 108.554C47.8212 108.554 52.4461 119.934 50.7186 121.85C48.9911 123.765 26.6641 120.793 26.6641 120.793V120.794Z" fill="white"/>
<path d="M46.3729 125.005C44.3373 125.005 41.5888 124.865 37.8271 124.539C32.0395 124.036 26.3904 123.287 26.3338 123.279C25.8987 123.221 25.4864 123.05 25.1383 122.783C24.7901 122.515 24.5183 122.161 24.3501 121.755L19.9768 111.203C19.6444 110.401 19.7503 109.483 20.2574 108.778C20.7645 108.073 21.6009 107.685 22.4655 107.741L36.5932 108.729C36.2353 107.799 35.893 106.863 35.5664 105.921C33.5265 100.014 33.3519 97.2374 34.9215 95.6756C36.0993 94.5039 37.8969 94.457 42.9387 95.4646C45.742 96.0248 49.5101 96.9261 54.1382 98.1422C61.974 100.202 69.706 102.493 69.7833 102.516C70.3256 102.677 70.7975 103.017 71.1222 103.481C71.4469 103.944 71.6053 104.504 71.5717 105.069C71.538 105.634 71.3143 106.172 70.9369 106.593C70.5595 107.015 70.0506 107.296 69.493 107.392L51.2383 110.514C51.6217 111.585 51.9803 112.665 52.3141 113.752C53.9654 119.169 54.0394 121.91 52.5786 123.53C51.8367 124.353 50.7716 125.005 46.3729 125.005ZM28.4231 118.494C36.4801 119.516 45.5248 120.254 48.599 119.92C48.449 117.992 47.1521 113.562 45.5012 109.499C45.3598 109.152 45.2982 108.777 45.3209 108.403C45.3436 108.028 45.4499 107.663 45.6321 107.336C45.8143 107.008 46.0677 106.725 46.3736 106.508C46.6796 106.291 47.0302 106.146 47.3997 106.083L57.7868 104.307C49.6951 102.089 42.3303 100.29 39.0178 99.8533C39.4809 102.136 40.9679 106.474 42.7229 110.509C43.0726 111.313 42.9777 112.241 42.4724 112.957C41.9671 113.673 41.1232 114.069 40.2514 114.012L26.1567 113.026L28.4231 118.494Z" fill="#242424"/>
</g>
<defs>
<clipPath id="clip0_3520_10331">
<rect width="163.571" height="178.214" fill="white" transform="translate(54.4287 36.0723)"/>
</clipPath>
<clipPath id="clip1_3520_10331">
<rect width="61.0714" height="81.4286" fill="white" transform="translate(19.7856 43.5723)"/>
</clipPath>
</defs>
</svg>
