<svg width="251" height="226" viewBox="0 0 251 226" fill="none" xmlns="http://www.w3.org/2000/svg">
<g clip-path="url(#clip0_3520_9890)">
<path d="M50.8435 176.211C48.9604 180.448 39.4586 182.541 35.0948 183.811C28.8465 185.63 26.3338 190.588 29.1441 192.322C31.4157 193.723 53.8583 193.629 56.8235 191.276C59.7888 188.922 60.0105 181.903 60.0105 181.903L50.8435 176.211V176.211Z" fill="white"/>
<path d="M39.8708 194.987C36.0053 194.987 29.8628 194.821 28.2251 193.811C26.783 192.921 26.0612 191.365 26.294 189.648C26.7245 186.473 30.0648 183.452 34.6056 182.131C35.2124 181.956 35.8205 181.786 36.4298 181.621C40.4479 180.517 47.9267 178.464 49.2441 175.5C49.3457 175.272 49.4951 175.067 49.6822 174.902C49.8693 174.736 50.0898 174.612 50.3288 174.538C50.5678 174.465 50.8198 174.443 51.0678 174.475C51.3158 174.507 51.554 174.592 51.7665 174.724L60.9335 180.415C61.1944 180.577 61.4081 180.805 61.5531 181.076C61.6981 181.347 61.7693 181.651 61.7596 181.958C61.7341 182.759 61.411 189.868 57.9113 192.646C55.8043 194.318 48.5108 194.825 42.7633 194.956C42.2438 194.967 41.1894 194.987 39.8708 194.987ZM30.028 190.81C30.9506 191.193 35.898 191.625 42.9328 191.451C51.0577 191.25 55.042 190.414 55.7381 189.902C57.3365 188.633 57.9955 184.934 58.1945 182.835L51.3562 178.589C48.4032 181.963 41.878 183.755 37.3566 184.996C36.7056 185.175 36.107 185.339 35.5835 185.491C31.6444 186.638 29.9223 188.937 29.7625 190.118C29.705 190.541 29.8503 190.694 30.028 190.81Z" fill="#242424"/>
<path d="M122.115 130.858C117.109 130.858 99.5379 131.913 95.2265 130.858C90.9152 129.802 73.6691 127.518 70.6601 127.91C67.5071 128.321 58.9396 132.137 58.7601 136.628C58.5806 141.119 64.8679 141.767 67.3828 138.928C69.8978 136.089 72.9515 135.371 72.9515 135.371C72.9515 135.371 91.9855 141.379 96.4171 142.196C100.116 142.878 120.848 143.755 120.848 143.755" fill="white"/>
<path d="M120.849 145.505C120.824 145.505 120.799 145.504 120.774 145.503C119.922 145.467 99.8763 144.614 96.0998 143.918C91.9772 143.158 76.0987 138.195 72.9454 137.204C72.1391 137.49 70.2792 138.298 68.6928 140.089C66.7969 142.229 63.2649 142.998 60.4764 141.876C58.21 140.965 56.9147 138.977 57.0114 136.559C57.1144 133.984 59.0751 131.456 62.6811 129.247C65.1988 127.706 68.3871 126.442 70.434 126.175C73.8728 125.728 91.6462 128.18 95.6432 129.159C98.5382 129.867 108.83 129.515 115.64 129.282C118.362 129.189 120.713 129.109 122.115 129.109H122.116C122.58 129.109 123.025 129.293 123.353 129.621C123.681 129.949 123.866 130.394 123.866 130.859C123.866 131.323 123.681 131.768 123.353 132.096C123.025 132.424 122.58 132.609 122.116 132.609H122.115C120.773 132.609 118.45 132.688 115.76 132.78C106.139 133.109 97.9219 133.32 94.8107 132.559C90.2706 131.447 73.505 129.304 70.8868 129.646C67.7165 130.06 60.6274 133.74 60.5092 136.699C60.4952 137.044 60.4532 138.095 61.783 138.63C63.1924 139.196 65.1571 138.802 66.0731 137.769C68.9236 134.551 72.4044 133.703 72.5512 133.668C72.8579 133.596 73.1785 133.608 73.479 133.703C73.6682 133.763 92.4597 139.688 96.7351 140.477C99.6706 141.018 115.19 141.765 120.923 142.007C121.38 142.026 121.812 142.224 122.125 142.558C122.439 142.891 122.609 143.335 122.6 143.792C122.59 144.25 122.402 144.686 122.075 145.006C121.747 145.327 121.308 145.506 120.85 145.506L120.849 145.505Z" fill="#242424"/>
<path d="M105.893 162.961C101.903 157.655 90.4359 135.974 77.7286 133C64.7986 129.975 53.2447 156.572 46.6807 176.934C46.6807 176.934 58.1906 185.395 63.8763 181.955C66.6238 180.293 73.6253 166.712 75.854 157.213C75.854 157.213 83.4538 186.7 97.7642 190.009C106.165 191.951 115.06 190.009 115.06 190.009C123.141 186.298 113.489 168.743 105.893 162.961Z" fill="white"/>
<path d="M106.005 192.627C103.326 192.627 100.33 192.399 97.37 191.715C86.1019 189.11 78.9453 172.271 75.877 163.268C72.8448 171.951 67.6411 181.724 64.7824 183.453C63.5278 184.213 62.0909 184.523 60.5813 184.523C54.2708 184.524 46.6727 179.101 45.6441 178.345C45.3483 178.127 45.1283 177.822 45.0154 177.473C44.9025 177.124 44.9024 176.748 45.0151 176.398C47.8783 167.516 52.5104 154.91 58.3194 145.294C64.8617 134.462 71.5257 129.754 78.1275 131.298C89.1424 133.876 98.6771 148.687 104.374 157.536C105.485 159.261 106.453 160.766 107.155 161.725C113.587 166.752 120.608 178.471 119.803 185.752C119.497 188.513 118.11 190.535 115.791 191.601C115.676 191.653 115.556 191.693 115.434 191.72C115.184 191.775 111.188 192.628 106.005 192.628V192.627ZM75.8543 155.464C76.2423 155.464 76.6193 155.593 76.926 155.831C77.2327 156.068 77.4517 156.401 77.5487 156.777C77.5674 156.849 79.4636 164.12 83.0466 171.669C86.2431 178.403 91.4595 186.756 98.1583 188.305C105.427 189.985 113.193 188.595 114.497 188.339C115.223 187.968 116.117 187.238 116.324 185.366C116.968 179.54 110.397 168.59 104.833 164.354C104.705 164.257 104.592 164.142 104.495 164.014C103.709 162.968 102.703 161.407 101.431 159.43C96.3757 151.578 86.9659 136.961 77.3302 134.706C72.374 133.546 66.9853 137.717 61.3159 147.103C55.9417 156 51.5746 167.631 48.7476 176.241C52.2074 178.539 59.5505 182.528 62.9708 180.459C64.9804 179.243 71.9007 166.406 74.1507 156.815C74.2401 156.434 74.4546 156.094 74.7599 155.849C75.0652 155.604 75.4438 155.469 75.835 155.465H75.8548L75.8543 155.464Z" fill="#242424"/>
<path d="M127.447 122.938C127.849 124.705 127.573 126.541 127.231 127.468C126.534 129.358 137.053 131.514 137.654 128.161C138.256 124.808 138.855 120.863 138.855 120.863C138.146 116.966 126.738 119.041 127.447 122.938H127.447Z" fill="white"/>
<path d="M138.855 130.732C138.502 130.732 138.157 130.625 137.865 130.426C137.574 130.226 137.35 129.942 137.222 129.613C136.278 127.17 136.261 123.362 137.181 120.352C137.317 119.908 137.623 119.536 138.033 119.318C138.443 119.1 138.922 119.054 139.366 119.19C139.81 119.325 140.182 119.632 140.4 120.042C140.618 120.452 140.664 120.931 140.528 121.375C139.839 123.63 139.821 126.629 140.487 128.351C140.59 128.616 140.626 128.902 140.593 129.184C140.56 129.467 140.459 129.737 140.299 129.972C140.138 130.206 139.922 130.398 139.671 130.53C139.419 130.663 139.139 130.732 138.855 130.732Z" fill="#242424"/>
<path d="M117.356 135.81C121.991 127.865 136.071 124.493 140.607 131.387C145.753 139.209 144.67 152.536 139.563 167.964C135.521 180.174 126.468 187.259 115.06 190.009C115.06 190.009 116.158 170.286 105.893 162.961C111.606 155.06 112.646 143.883 117.356 135.81H117.356Z" fill="white"/>
<path d="M115.06 191.759C114.822 191.759 114.586 191.71 114.368 191.616C114.149 191.522 113.952 191.384 113.788 191.211C113.625 191.038 113.498 190.834 113.417 190.61C113.335 190.387 113.299 190.149 113.313 189.911C113.323 189.725 114.229 171.059 104.876 164.385C104.689 164.251 104.529 164.081 104.407 163.886C104.285 163.69 104.203 163.472 104.166 163.244C104.129 163.016 104.137 162.784 104.19 162.559C104.243 162.334 104.34 162.123 104.475 161.936C107.46 157.807 109.163 152.542 110.81 147.449C112.198 143.157 113.634 138.718 115.844 134.928C118.837 129.799 125.492 126.094 132.03 125.918C136.51 125.8 140.077 127.398 142.069 130.425C147.189 138.208 146.897 151.378 141.224 168.514C137.226 180.592 128.32 188.613 115.47 191.71C115.336 191.743 115.198 191.759 115.06 191.759ZM108.249 162.603C115.837 169.312 116.793 182.329 116.847 187.713C127.279 184.564 134.534 177.585 137.901 167.414C143.226 151.331 143.655 139.206 139.144 132.349C137.389 129.681 133.993 129.369 132.124 129.417C126.819 129.56 121.244 132.62 118.868 136.692C116.848 140.155 115.532 144.221 114.14 148.526C112.581 153.348 110.973 158.318 108.249 162.603H108.249Z" fill="#242424"/>
<path d="M122.736 145.292C122.35 154.098 119.838 164.235 118.031 168.073C116.225 171.912 103.649 185.917 99.8099 187.26C95.9711 188.603 84.2292 188.603 85.5841 192.893C86.9389 197.183 103.491 196.506 106.844 194.022C110.197 191.539 127.269 179.465 130.346 173.195C134.013 165.724 140.942 144.35 137.142 136.939" fill="white"/>
<path d="M95.979 197.743C92.9958 197.743 90.0805 197.427 87.9763 196.744C85.7504 196.022 84.3838 194.903 83.9148 193.419C83.5737 192.339 83.693 191.285 84.2596 190.372C85.8009 187.887 90.3433 187.179 94.7359 186.494C96.5545 186.21 98.2724 185.942 99.2315 185.607C102.368 184.509 114.683 171.075 116.447 167.326C118.057 163.907 120.599 154.065 120.987 145.214C121.029 144.248 121.844 143.496 122.812 143.542C123.276 143.562 123.712 143.766 124.026 144.108C124.339 144.45 124.504 144.903 124.484 145.367C124.105 154.009 121.661 164.469 119.614 168.817C118.524 171.133 114.485 175.998 110.965 179.791C108.185 182.787 103.114 187.956 100.387 188.91C99.1267 189.351 97.3416 189.629 95.2749 189.952C93.2848 190.262 91.2269 190.583 89.5767 191.066C87.5193 191.669 87.2348 192.211 87.224 192.234C87.225 192.235 87.2245 192.277 87.2523 192.365C87.309 192.544 87.7588 192.994 89.0559 193.415C94.0693 195.041 103.818 194.084 105.802 192.614C106.097 192.395 106.499 192.103 106.987 191.746C119.707 182.464 127.037 175.962 128.774 172.423C132.905 164.007 138.77 143.949 135.584 137.736C135.372 137.323 135.333 136.843 135.476 136.401C135.618 135.959 135.93 135.592 136.343 135.38C136.756 135.169 137.236 135.129 137.678 135.272C138.12 135.414 138.487 135.726 138.699 136.139C140.578 139.802 140.425 146.299 138.246 155.448C136.459 162.949 133.713 170.305 131.917 173.965C129.229 179.441 117.579 188.349 109.05 194.573C108.57 194.924 108.176 195.211 107.885 195.427C105.897 196.9 100.848 197.743 95.9785 197.743H95.979Z" fill="#242424"/>
<path d="M138.855 120.864C144.766 120.938 145.17 117.513 147.201 115.264C161.487 99.4417 144.554 80.7406 123.688 90.4639L126.875 93.9114C120.256 95.6624 121.006 106.3 115.705 106.118C115.705 106.118 111.572 121.5 127.447 122.939C132.674 123.466 135.793 123.286 138.855 120.864L138.855 120.864Z" fill="white"/>
<path d="M145.822 118.116C145.453 118.116 145.093 117.999 144.793 117.782C144.494 117.565 144.271 117.259 144.157 116.908C144.042 116.557 144.042 116.178 144.156 115.827C144.27 115.475 144.492 115.169 144.79 114.951C152.137 109.6 152.193 101.859 148.99 96.5602C145.138 90.1887 136.059 86.3179 124.462 92.034C124.045 92.2392 123.565 92.2706 123.125 92.1213C122.686 91.972 122.323 91.6543 122.118 91.238C121.913 90.8216 121.881 90.3408 122.031 89.9013C122.18 89.4618 122.498 89.0996 122.914 88.8944C129.044 85.8734 135.152 85.0089 140.579 86.3949C145.425 87.6324 149.476 90.5994 151.985 94.7495C155.885 101.201 155.942 111.159 146.851 117.78C146.552 117.999 146.192 118.116 145.822 118.116L145.822 118.116Z" fill="#242424"/>
<path d="M128.053 124.518C123.358 124.518 119.319 122.687 116.615 119.312C113.668 115.633 112.696 110.53 114.015 105.66C114.113 105.298 114.325 104.977 114.62 104.744C114.914 104.512 115.275 104.38 115.65 104.368C117.489 104.311 118.167 102.966 119.181 100.124L119.322 99.7287C120.257 97.082 121.317 94.082 126.273 92.2669C126.708 92.1108 127.187 92.1331 127.606 92.329C128.024 92.5248 128.348 92.8783 128.507 93.3123C128.666 93.7463 128.647 94.2256 128.454 94.6454C128.261 95.0653 127.909 95.3918 127.476 95.5535C124.068 96.8015 123.493 98.4297 122.622 100.895L122.486 101.278C121.669 103.569 120.49 106.872 117.144 107.684C116.522 111.126 117.315 114.586 119.347 117.123C121.49 119.798 124.819 121.176 128.718 121.002C128.948 120.992 129.177 121.027 129.393 121.105C129.61 121.183 129.808 121.303 129.978 121.459C130.147 121.614 130.285 121.801 130.382 122.009C130.479 122.217 130.535 122.443 130.545 122.672C130.555 122.902 130.52 123.131 130.441 123.347C130.363 123.563 130.243 123.762 130.088 123.932C129.932 124.101 129.745 124.238 129.537 124.336C129.329 124.433 129.104 124.488 128.874 124.499C128.601 124.511 128.327 124.517 128.053 124.517L128.053 124.518Z" fill="#242424"/>
<path d="M129.789 100.301C129.492 100.3 129.201 100.225 128.941 100.081C128.682 99.9376 128.463 99.7304 128.306 99.4791C128.149 99.2278 128.058 98.9406 128.042 98.6446C128.026 98.3485 128.086 98.0533 128.215 97.7866C129.873 94.3676 134.5 94.3263 135.878 94.3953C136.339 94.4225 136.77 94.6305 137.078 94.974C137.386 95.3175 137.546 95.7688 137.523 96.2295C137.5 96.6903 137.296 97.1234 136.955 97.4345C136.615 97.7456 136.165 97.9096 135.704 97.8908C133.93 97.8021 131.901 98.2078 131.365 99.3136C131.221 99.6096 130.998 99.8591 130.719 100.034C130.44 100.208 130.118 100.301 129.789 100.3V100.301ZM134.307 106.438C134.035 106.438 133.767 106.375 133.524 106.253C133.281 106.132 133.07 105.956 132.906 105.738C132.743 105.521 132.633 105.269 132.584 105.001C132.536 104.734 132.55 104.459 132.626 104.198C133.358 101.683 136.417 99.1096 140.086 99.3346C140.549 99.3632 140.982 99.5746 141.289 99.9223C141.597 100.27 141.753 100.726 141.725 101.189C141.665 102.153 140.833 102.885 139.871 102.828C137.952 102.71 136.288 104.14 135.987 105.176C135.881 105.54 135.66 105.859 135.357 106.087C135.054 106.314 134.686 106.437 134.307 106.438L134.307 106.438ZM139.693 122.939C138.35 122.939 136.928 122.658 135.487 122.087C135.271 122.003 135.075 121.878 134.908 121.718C134.742 121.558 134.608 121.367 134.516 121.155C134.424 120.944 134.374 120.716 134.37 120.485C134.366 120.254 134.408 120.025 134.493 119.81C134.578 119.595 134.705 119.4 134.866 119.234C135.027 119.069 135.219 118.937 135.432 118.846C135.644 118.755 135.872 118.707 136.103 118.705C136.334 118.703 136.563 118.746 136.777 118.833C140.443 120.286 142.397 118.792 143.067 118.082C143.983 117.111 144.165 115.965 143.871 115.336C143.475 114.484 142.168 114.428 141.426 114.47C140.461 114.528 139.634 113.788 139.578 112.823C139.565 112.594 139.597 112.364 139.673 112.147C139.749 111.93 139.866 111.73 140.019 111.558C140.172 111.387 140.358 111.247 140.565 111.147C140.772 111.047 140.996 110.989 141.226 110.976C143.997 110.817 146.118 111.868 147.044 113.858C147.997 115.903 147.422 118.566 145.613 120.483C144.085 122.104 142.007 122.939 139.692 122.939H139.693Z" fill="#242424"/>
<path d="M126.512 108.053C127.496 108.053 128.293 107.255 128.293 106.271C128.293 105.288 127.496 104.49 126.512 104.49C125.528 104.49 124.73 105.288 124.73 106.271C124.73 107.255 125.528 108.053 126.512 108.053Z" fill="#242424"/>
<path d="M75.8559 158.965C75.6018 158.965 75.3507 158.91 75.12 158.803C74.8893 158.697 74.6846 158.541 74.52 158.348C74.3555 158.154 74.2351 157.927 74.1672 157.682C74.0993 157.437 74.0855 157.181 74.1268 156.93C74.8696 152.419 75.1679 147.835 75.1709 147.789C75.2004 147.326 75.4128 146.894 75.7612 146.587C75.9338 146.435 76.1345 146.319 76.352 146.245C76.5695 146.17 76.7995 146.14 77.0289 146.154C77.2583 146.169 77.4825 146.229 77.6888 146.33C77.8951 146.431 78.0795 146.572 78.2313 146.745C78.3832 146.917 78.4996 147.118 78.5738 147.335C78.6481 147.553 78.6788 147.783 78.6642 148.012C78.6519 148.206 78.3529 152.81 77.5808 157.499C77.5135 157.908 77.3031 158.28 76.9872 158.548C76.6714 158.817 76.2705 158.964 75.8559 158.965ZM128.813 164.712C128.159 164.712 127.52 164.684 126.927 164.635C124.796 164.458 120.954 163.813 119.172 161.487C119.032 161.304 118.93 161.096 118.871 160.874C118.811 160.652 118.796 160.421 118.826 160.193C118.887 159.733 119.129 159.316 119.497 159.033C119.866 158.751 120.331 158.627 120.791 158.688C121.251 158.749 121.669 158.99 121.951 159.358C122.422 159.973 123.864 160.746 126.497 161.073C129.736 161.473 132.469 160.925 132.966 160.531C133.673 159.871 134.775 159.914 135.435 160.62C136.094 161.326 136.051 162.438 135.345 163.098C134.058 164.3 131.322 164.712 128.813 164.712V164.712ZM106.845 144.805C106.519 144.805 106.2 144.714 105.923 144.543C105.646 144.371 105.422 144.125 105.277 143.833C103.275 139.806 104.006 133.26 106.811 130.1C106.963 129.928 107.148 129.788 107.355 129.688C107.562 129.587 107.786 129.528 108.016 129.515C108.245 129.501 108.475 129.533 108.692 129.608C108.909 129.683 109.109 129.8 109.281 129.953C109.453 130.105 109.593 130.29 109.694 130.497C109.794 130.704 109.853 130.928 109.867 131.158C109.88 131.387 109.849 131.617 109.774 131.834C109.698 132.051 109.581 132.251 109.429 132.423C107.757 134.306 106.944 139.322 108.411 142.276C108.544 142.542 108.606 142.839 108.592 143.136C108.579 143.434 108.489 143.723 108.332 143.976C108.175 144.229 107.957 144.438 107.696 144.583C107.436 144.729 107.143 144.805 106.845 144.805Z" fill="#242424"/>
</g>
<g clip-path="url(#clip1_3520_9890)">
<path d="M142.296 183.964H219.8C219.286 170.909 223.233 122.231 186.875 114.022H186.709C222.005 107.494 219.286 57.1353 219.8 44.0801H142.296C142.81 57.1353 138.863 105.812 175.221 114.022H175.387C140.091 120.55 142.81 170.909 142.296 183.964Z" fill="white"/>
<path d="M219.8 185.711H142.295C142.06 185.711 141.827 185.663 141.611 185.571C141.395 185.479 141.199 185.344 141.036 185.174C140.873 185.005 140.746 184.804 140.662 184.584C140.579 184.364 140.541 184.129 140.55 183.894C140.595 182.76 140.615 181.318 140.638 179.648C140.762 170.728 140.97 155.799 145.244 142.056C149.772 127.498 157.741 118.074 168.977 113.956C140.806 103.092 140.673 65.6658 140.614 49.1048C140.607 47.142 140.601 45.4472 140.55 44.1482C140.541 43.9131 140.579 43.6786 140.663 43.4587C140.746 43.2388 140.873 43.038 141.036 42.8684C141.199 42.6988 141.395 42.5638 141.611 42.4717C141.827 42.3795 142.06 42.332 142.295 42.332H219.8C220.035 42.3321 220.268 42.3796 220.484 42.4718C220.701 42.564 220.896 42.6989 221.059 42.8685C221.222 43.0381 221.349 43.2389 221.433 43.4588C221.516 43.6787 221.555 43.9132 221.546 44.1482C221.501 45.2821 221.481 46.7241 221.457 48.3938C221.333 57.3135 221.125 72.2428 216.851 85.9863C212.323 100.545 204.354 109.969 193.118 114.086C221.29 124.951 221.422 162.377 221.481 178.938C221.488 180.901 221.494 182.596 221.545 183.895C221.555 184.13 221.516 184.364 221.433 184.584C221.349 184.804 221.222 185.005 221.059 185.174C220.896 185.344 220.701 185.479 220.484 185.571C220.268 185.663 220.035 185.711 219.8 185.711L219.8 185.711ZM144.092 182.216H218.01C217.996 181.237 217.992 180.142 217.988 178.95C217.957 170.389 217.906 156.061 213.86 143.197C209.099 128.06 199.955 118.833 186.677 115.768C186.247 115.761 185.835 115.594 185.52 115.301C185.205 115.008 185.009 114.609 184.97 114.181C184.93 113.747 185.054 113.313 185.317 112.966C185.58 112.619 185.963 112.382 186.392 112.303C199.499 109.879 208.624 100.675 213.515 84.948C217.639 71.6881 217.843 57.0756 217.964 48.3451C217.977 47.4366 217.989 46.5946 218.004 45.8271H144.086C144.1 46.8055 144.104 47.9005 144.108 49.0923C144.139 57.6533 144.19 71.9819 148.236 84.8461C152.996 99.9829 162.141 109.21 175.419 112.274C175.849 112.282 176.261 112.448 176.576 112.741C176.891 113.034 177.087 113.433 177.126 113.862C177.166 114.296 177.042 114.729 176.779 115.076C176.516 115.424 176.133 115.66 175.704 115.74C162.597 118.164 153.472 127.367 148.581 143.094C144.457 156.354 144.253 170.967 144.131 179.697C144.119 180.606 144.107 181.448 144.092 182.216Z" fill="#242424"/>
<path d="M137.608 34.0147C141.479 30.9008 218.184 33.456 222.951 34.0147C232.906 35.1811 229.645 47.5737 222.951 47.9127C216.258 48.2517 144.693 50.3131 137.608 47.9127C133.336 46.4655 134.279 36.6922 137.608 34.0147Z" fill="#242424"/>
<path d="M164.358 50.8113C150.95 50.8113 139.808 50.5025 137.047 49.5671C135.047 48.8893 133.678 47.0097 133.194 44.2747C132.526 40.5063 133.605 34.991 136.513 32.6521C137.482 31.8726 139.497 30.2522 179.971 30.8893C200.886 31.2191 220.765 31.998 223.155 32.2781C229.122 32.9773 231.108 37.2176 230.995 40.6361C230.858 44.7878 227.777 49.417 223.04 49.6569C220.148 49.8032 188.565 50.8111 164.358 50.8113ZM138.64 35.4282C137.085 36.7625 136.113 40.724 136.633 43.6651C136.779 44.4882 137.173 45.9194 138.168 46.2567C144.586 48.4309 213.659 46.6327 222.863 46.1666C225.531 46.0315 227.416 43.1383 227.503 40.521C227.555 38.9532 227.006 36.2488 222.748 35.7497C220.551 35.4923 200.853 34.7269 180.752 34.3976C144.61 33.8054 139.372 35.1074 138.64 35.4282ZM226.064 192.885C222.193 196.158 148.04 195.27 143.272 194.682C133.318 193.456 134.355 180.677 141.048 180.321C147.742 179.965 216.868 178.778 223.953 181.301C228.225 182.822 229.392 190.071 226.064 192.885Z" fill="#242424"/>
<path d="M177.565 197.001C160.573 197.001 145.212 196.683 143.059 196.418C136.706 195.635 134.016 190.854 134.168 186.463C134.32 182.094 137.174 178.778 140.955 178.577C146.46 178.284 216.789 176.896 224.539 179.656C227.104 180.569 228.983 183.027 229.566 186.231C230.147 189.43 229.237 192.491 227.191 194.22C226.295 194.978 224.196 196.752 185.014 196.98C182.521 196.994 180.025 197.001 177.565 197.001ZM184.46 181.485C164.993 181.485 144.867 181.869 141.141 182.067C138.853 182.189 137.733 184.494 137.66 186.584C137.57 189.178 139.042 192.401 143.486 192.949C145.537 193.201 163.712 193.594 184.21 193.489C219.255 193.308 224.294 191.845 224.991 191.504C226.029 190.578 226.475 188.765 226.128 186.857C225.777 184.927 224.72 183.43 223.367 182.948C220.194 181.819 202.613 181.485 184.46 181.485V181.485Z" fill="#242424"/>
<path d="M157.03 90.6488C161.367 97.5511 166.07 108.406 180.711 108.336C190.416 108.289 202.068 103.158 206.635 85.4219L157.03 90.6488ZM148.878 172.76H213.082C213.082 172.76 218.936 154.472 210.291 146.877C204.159 141.49 154.788 148.574 152.101 152.859C148.878 161.473 148.878 172.76 148.878 172.76L148.878 172.76Z" fill="#D1F2EB"/>
<path d="M180.61 110.083C165.481 110.083 156.226 94.9525 153.136 85.9913C153.046 85.7281 153.019 85.4469 153.059 85.1713C153.099 84.8957 153.204 84.6336 153.365 84.4068C153.527 84.1801 153.74 83.9952 153.988 83.8677C154.235 83.7402 154.51 83.6737 154.788 83.6738H206.635C206.901 83.6738 207.164 83.7347 207.404 83.8521C207.643 83.9694 207.853 84.1399 208.016 84.3507C208.179 84.5614 208.292 84.8068 208.346 85.0679C208.4 85.3291 208.393 85.5991 208.327 85.8573C206.141 94.3476 202.21 100.759 196.644 104.913C190.967 109.15 184.851 110.063 180.72 110.083H180.61V110.083ZM157.329 87.1689C160.754 95.2945 168.64 106.588 180.61 106.588H180.703C187.406 106.555 199.132 103.929 204.325 87.1692L157.329 87.1689ZM213.082 174.508H148.878C148.414 174.508 147.97 174.324 147.643 173.996C147.315 173.668 147.131 173.224 147.131 172.76C147.131 172.286 147.169 161.056 150.465 152.246C150.507 152.136 150.559 152.03 150.621 151.93C151.185 151.031 152.505 148.926 170.16 148.284C178.503 147.982 188.183 148.121 196.053 148.658C210.253 149.627 211.482 151.303 212.073 152.109C212.103 152.15 212.13 152.191 212.156 152.234C216.175 158.839 214.877 172.362 214.82 172.934C214.777 173.366 214.575 173.765 214.254 174.056C213.933 174.347 213.515 174.508 213.082 174.508ZM150.672 171.013H211.458C211.665 167.445 211.861 158.708 209.275 154.224C207.77 153.209 198.302 151.763 181.399 151.63C164.697 151.499 155.28 152.807 153.607 153.827C151.377 160.016 150.814 167.638 150.672 171.012V171.013ZM181.097 129.629C180.633 129.629 180.189 129.445 179.861 129.117C179.534 128.79 179.35 128.345 179.35 127.882V117.401C179.35 116.938 179.534 116.493 179.861 116.165C180.189 115.838 180.633 115.653 181.097 115.653C181.56 115.653 182.004 115.838 182.332 116.165C182.659 116.493 182.843 116.938 182.843 117.401V127.882C182.843 128.345 182.659 128.79 182.332 129.117C182.004 129.445 181.56 129.629 181.097 129.629ZM181.097 143.729C180.867 143.729 180.64 143.684 180.428 143.596C180.216 143.508 180.024 143.38 179.861 143.217C179.699 143.055 179.57 142.863 179.483 142.651C179.395 142.439 179.35 142.211 179.35 141.982V136.741C179.35 136.278 179.534 135.833 179.861 135.506C180.189 135.178 180.633 134.994 181.097 134.994C181.56 134.994 182.004 135.178 182.332 135.506C182.659 135.833 182.843 136.278 182.843 136.741V141.982C182.843 142.211 182.798 142.439 182.711 142.651C182.623 142.863 182.494 143.055 182.332 143.217C182.17 143.38 181.977 143.508 181.765 143.596C181.553 143.684 181.326 143.729 181.097 143.729Z" fill="#242424"/>
</g>
<defs>
<clipPath id="clip0_3520_9890">
<rect width="128.25" height="112" fill="white" transform="translate(26.25 85.75)"/>
</clipPath>
<clipPath id="clip1_3520_9890">
<rect width="98" height="166.25" fill="white" transform="translate(133 30.75)"/>
</clipPath>
</defs>
</svg>
